<svg width="16" height="16" viewBox="0 0 16 16" fill="none" xmlns="http://www.w3.org/2000/svg">
<g clip-path="url(#clip0)">
<path d="M10 6H12C12.4378 6 12.8712 6.08622 13.2756 6.25373C13.6801 6.42125 14.0475 6.66678 14.357 6.97631C14.6666 7.28584 14.9121 7.6533 15.0796 8.05772C15.2471 8.46214 15.3334 8.89559 15.3334 9.33333C15.3334 9.77107 15.2471 10.2045 15.0796 10.6089C14.9121 11.0134 14.6666 11.3808 14.357 11.6904C14.0475 11.9999 13.6801 12.2454 13.2756 12.4129C12.8712 12.5804 12.4378 12.6667 12 12.6667H10M6.00002 12.6667H4.00002C3.56228 12.6667 3.12883 12.5804 2.72441 12.4129C2.31999 12.2454 1.95253 11.9999 1.643 11.6904C1.01788 11.0652 0.666687 10.2174 0.666687 9.33333C0.666687 8.44928 1.01788 7.60143 1.643 6.97631C2.26812 6.35119 3.11597 6 4.00002 6H6.00002" stroke="#A6B3C9" stroke-width="1.4" stroke-linecap="round" stroke-linejoin="round"/>
<path d="M5.33331 9.33331H10.6666" stroke="#A6B3C9" stroke-width="1.4" stroke-linecap="round" stroke-linejoin="round"/>
</g>
<defs>
<clipPath id="clip0">
<rect width="16" height="16" fill="white"/>
</clipPath>
</defs>
</svg>
