<svg width="16" height="16" viewBox="0 0 16 16" fill="none" xmlns="http://www.w3.org/2000/svg">
<g clip-path="url(#clip0)">
<path d="M10 4.66667H12C12.4378 4.66667 12.8712 4.75289 13.2756 4.92041C13.6801 5.08792 14.0475 5.33345 14.357 5.64298C14.6666 5.95251 14.9121 6.31998 15.0796 6.72439C15.2471 7.12881 15.3334 7.56227 15.3334 8C15.3334 8.43774 15.2471 8.8712 15.0796 9.27562C14.9121 9.68003 14.6666 10.0475 14.357 10.357C14.0475 10.6666 13.6801 10.9121 13.2756 11.0796C12.8712 11.2471 12.4378 11.3333 12 11.3333H10M6.00002 11.3333H4.00002C3.56228 11.3333 3.12883 11.2471 2.72441 11.0796C2.31999 10.9121 1.95253 10.6666 1.643 10.357C1.01788 9.73191 0.666687 8.88406 0.666687 8C0.666687 7.11595 1.01788 6.2681 1.643 5.64298C2.26812 5.01786 3.11597 4.66667 4.00002 4.66667H6.00002" stroke="#A6B3C9" stroke-width="1.4" stroke-linecap="round" stroke-linejoin="round"/>
<path d="M5.33331 8H10.6666" stroke="#A6B3C9" stroke-width="1.4" stroke-linecap="round" stroke-linejoin="round"/>
</g>
<defs>
<clipPath id="clip0">
<rect width="16" height="16" fill="white"/>
</clipPath>
</defs>
</svg>
