<svg width="16" height="16" viewBox="0 0 16 16" fill="none" xmlns="http://www.w3.org/2000/svg">
<path d="M12.6667 2H3.33333C2.59695 2 2 2.59695 2 3.33333V12.6667C2 13.403 2.59695 14 3.33333 14H12.6667C13.403 14 14 13.403 14 12.6667V3.33333C14 2.59695 13.403 2 12.6667 2Z" fill="#A6B3C9" stroke="#A6B3C9" stroke-width="1.4" stroke-linecap="round" stroke-linejoin="round"/>
<path d="M6.06 6.00001C6.21673 5.55446 6.5261 5.17875 6.9333 4.93944C7.3405 4.70012 7.81926 4.61264 8.28478 4.69249C8.7503 4.77234 9.17254 5.01436 9.47672 5.3757C9.78089 5.73703 9.94737 6.19436 9.94666 6.66668C9.94666 8.00001 7.94666 8.66668 7.94666 8.66668" stroke="white" stroke-width="1.4" stroke-linecap="round" stroke-linejoin="round"/>
<path d="M7.99998 11.8C8.49703 11.8 8.89998 11.3971 8.89998 10.9C8.89998 10.4029 8.49703 10 7.99998 10C7.50292 10 7.09998 10.4029 7.09998 10.9C7.09998 11.3971 7.50292 11.8 7.99998 11.8Z" fill="white"/>
</svg>
